#!OML:ASF H:\Male1\Project 1\Capture day 1\Session 1\Male1.ASF
:FULLY-SPECIFIED
:DEGREES
379
root 3.172 20.8691 -0.629528 -7.00304 -41.7577 14.2903
lowerback 26.2047 -2.17153 -1.55328
upperback 8.00002 -3.41425 0.586267
thorax -5.49396 -1.77872 2.56272
lowerneck -17.4881 3.36239 4.81913
upperneck 26.6363 4.14042 -3.62007
head 11.8073 1.81091 -1.548
rclavicle -1.11319e-014 -1.74931e-014
rhumerus -2.68576 20.4713 -58.2003
rradius 112.558
rwrist -1.10922
rhand -18.1653 -4.7111
rfingers 7.12502
rthumb 8.1108 -34.5354
lclavicle -1.11319e-014 -1.74931e-014
lhumerus 38.5376 1.41612 58.0924
lradius 94.7231
lwrist 41.6461
lhand -26.936 24.6092
lfingers 7.12502
lthumb -0.358313 54.5886
rfemur -13.3095 -6.05253 14.8461
rtibia 24.1409
rfoot -25.7594 -28.8678
rtoes -0.69076
lfemur -52.4155 13.8474 -25.8222
ltibia 104.769
lfoot -4.97187 -14.3822
ltoes -18.7134
380
root 3.24201 20.8272 -0.613101 -7.23328 -42.9826 14.4725
lowerback 26.0692 -2.34038 -0.991366
upperback 7.87863 -3.51848 0.238382
thorax -5.61502 -1.82282 1.89171
lowerneck -17.3452 3.53996 5.28614
upperneck 26.6676 4.27967 -3.72159
head 11.8137 1.90649 -1.64565
rclavicle 3.81667e-014 1.82882e-014
rhumerus -1.12378 20.7193 -59.5414
rradius 111.475
rwrist 0.305245
rhand -17.1071 -4.85249
rfingers 7.12502
rthumb 9.13199 -34.6348
lclavicle 3.81667e-014 1.82882e-014
lhumerus 37.7029 2.35413 57.834
lradius 94.5861
lwrist 41.5553
lhand -26.4496 24.768
lfingers 7.12502
lthumb 0.111532 54.7477
rfemur -14.7295 -6.28833 14.7813
rtibia 26.0694
rfoot -25.5245 -27.8445
rtoes -2.23112
lfemur -48.4158 13.1257 -24.8966
ltibia 100.93
lfoot -3.7596 -14.17
ltoes -19.0222
381
root 3.31174 20.7726 -0.591118 -7.39878 -44.2907 14.5874
lowerback 25.9075 -2.46704 -0.442912
upperback 7.74984 -3.56806 -0.04058
thorax -5.72875 -1.84294 1.28731
lowerneck -17.1597 3.73397 5.75491
upperneck 26.6548 4.46337 -3.88541
head 11.7997 2.01501 -1.76007
rclavicle 2.78299e-014 -4.6118e-014
rhumerus 0.40388 20.8676 -60.8224
rradius 110.385
rwrist 1.85857
rhand -15.7885 -4.75698
rfingers 7.12502
rthumb 10.4042 -34.4796
lclavicle 2.78299e-014 -4.6118e-014
lhumerus 36.8872 3.30852 57.5368
lradius 94.4856
lwrist 41.4872
lhand -26.0244 24.944
lfingers 7.12502
lthumb 0.522191 54.9231
rfemur -16.254 -6.55532 14.7902
rtibia 28.1394
rfoot -25.2531 -26.745
rtoes -4.14507
lfemur -44.4909 12.2389 -24.1623
ltibia 96.5052
lfoot -2.70041 -13.6672
ltoes -18.6164
382
root 3.38063 20.7083 -0.563423 -7.47946 -45.6848 14.62
lowerback 25.7095 -2.54688 -0.00583709
upperback 7.62346 -3.57687 -0.187258
thorax -5.8067 -1.84639 0.876772
lowerneck -16.9581 3.96837 6.20948
upperneck 26.6072 4.74782 -4.17321
head 11.7795 2.15196 -1.90265
rclavicle 5.56597e-014 -5.64548e-014
rhumerus 1.99992 21.0167 -61.9061
rradius 109.305
rwrist 3.42422
rhand -14.3259 -4.51947
rfingers 7.12502
rthumb 11.8149 -34.1662
lclavicle 5.56597e-014 -5.64548e-014
lhumerus 36.0498 4.36931 57.2419
lradius 94.4231
lwrist 41.4477
lhand -25.6965 25.1531
lfingers 7.12502
lthumb 0.838904 55.1311
rfemur -17.8766 -6.86012 14.8898
rtibia 30.3026
rfoot -24.9461 -25.5791
rtoes -6.30935
lfemur -40.6762 11.2823 -23.5864
ltibia 91.5974
lfoot -1.77794 -12.6835
ltoes -18.2483
383
root 3.44755 20.636 -0.531328 -7.48771 -47.1647 14.5682
lowerback 25.4818 -2.55162 0.236125
upperback 7.51583 -3.52697 -0.167167
thorax -5.82627 -1.82427 0.73929
lowerneck -16.7244 4.23281 6.65132
upperneck 26.4939 5.12159 -4.59667
head 11.7395 2.31174 -2.07961
rclavicle -3.02153e-014 2.62396e-014
rhumerus 3.70101 21.2177 -62.6963
rradius 108.26
rwrist 4.84022
rhand -12.751 -4.21146
rfingers 7.12502
rthumb 13.3332 -33.7649
lclavicle -3.02153e-014 2.62396e-014
lhumerus 35.2222 5.54351 57.004
lradius 94.3796
lwrist 41.4353
lhand -25.4758 25.4201
lfingers 7.12502
lthumb 1.05199 55.3973
rfemur -19.5659 -7.15654 15.0888
rtibia 32.5212
rfoot -24.666 -24.3638
rtoes -8.40326
lfemur -36.967 10.2999 -23.1098
ltibia 86.297
lfoot -0.906552 -11.2183
ltoes -17.7913
384
root 3.51286 20.5564 -0.495864 -7.44842 -48.6928 14.4383
lowerback 25.2485 -2.4989 0.345871
upperback 7.43681 -3.4297 -0.040998
thorax -5.7965 -1.78096 0.777247
lowerneck -16.4692 4.51691 7.12948
upperneck 26.3286 5.5438 -5.1198
head 11.6869 2.48588 -2.292
rclavicle -2.46493e-014 7.95139e-015
rhumerus 5.47517 21.4906 -63.2308
rradius 107.276
rwrist 5.93368
rhand -11.2873 -4.04715
rfingers 7.12502
rthumb 14.7437 -33.5028
lclavicle -2.46493e-014 7.95139e-015
lhumerus 34.4681 6.76316 56.7755
lradius 94.3449
lwrist 41.4815
lhand -25.3685 25.7586
lfingers 7.12502
lthumb 1.1557 55.7353
rfemur -21.2835 -7.47702 15.3706
rtibia 34.7814
rfoot -24.4415 -23.0768
rtoes -10.208
lfemur -33.3509 9.23751 -22.7131
ltibia 80.7001
lfoot -0.197522 -9.43375
ltoes -17.2984
385
root 3.57642 20.4694 -0.457592 -7.37365 -50.2683 14.2288
lowerback 25.0124 -2.40643 0.383909
upperback 7.40235 -3.29761 0.136515
thorax -5.70908 -1.72245 0.90023
lowerneck -16.2147 4.81957 7.64021
upperneck 26.1094 5.99332 -5.67699
head 11.6237 2.67285 -2.5174
rclavicle 8.50798e-014 -1.98785e-014
rhumerus 7.34247 21.8501 -63.539
rradius 106.352
rwrist 6.63751
rhand -9.90919 -3.96267
rfingers 7.12502
rthumb 16.0711 -33.3162
lclavicle 8.50798e-014 -1.98785e-014
lhumerus 33.8249 8.0226 56.5366
lradius 94.3103
lwrist 41.6074
lhand -25.3284 26.166
lfingers 7.12502
lthumb 1.19437 56.1424
rfemur -23.014 -7.8224 15.7308
rtibia 37.0858
rfoot -24.2601 -21.7239
rtoes -11.8731
lfemur -29.8211 8.06847 -22.3758
ltibia 74.8961
lfoot 0.177542 -7.46617
ltoes -16.8358
386
root 3.63916 20.3741 -0.418063 -7.28646 -51.8702 13.9464
lowerback 24.8231 -2.28001 0.410753
upperback 7.40604 -3.1266 0.318637
thorax -5.60293 -1.64614 1.02471
lowerneck -15.9844 5.1292 8.19564
upperneck 25.8519 6.44366 -6.24995
head 11.5592 2.86395 -2.75473
rclavicle -4.92986e-014 8.74653e-015
rhumerus 9.27175 22.2417 -63.6558
rradius 105.477
rwrist 6.96871
rhand -8.70554 -3.99561
rfingers 7.12502
rthumb 17.2299 -33.2518
lclavicle -4.92986e-014 8.74653e-015
lhumerus 33.3538 9.26302 56.2633
lradius 94.2478
lwrist 41.8367
lhand -25.3111 26.6401
lfingers 7.12502
lthumb 1.21106 56.6164
rfemur -24.7365 -8.19865 16.1489
rtibia 39.4433
rfoot -24.1418 -20.292
rtoes -13.48
lfemur -26.3817 6.72627 -22.0957
ltibia 68.987
lfoot 0.312435 -5.39008
ltoes -16.5186
387
root 3.70124 20.2708 -0.37678 -7.19697 -53.5199 13.6016
lowerback 24.6934 -2.1009 0.440355
upperback 7.43557 -2.88926 0.49946
thorax -5.49987 -1.53848 1.12974
lowerneck -15.7608 5.41321 8.75102
upperneck 25.5238 6.84887 -6.79454
head 11.47 3.04005 -2.98666
rclavicle -1.03368e-014 3.89618e-014
rhumerus 11.2427 22.5517 -63.5923
rradius 104.607
rwrist 7.14634
rhand -7.50135 -3.96985
rfingers 7.12502
rthumb 18.3886 -33.1207
lclavicle -1.03368e-014 3.89618e-014
lhumerus 33.0633 10.4387 55.997
lradius 94.1328
lwrist 42.145
lhand -25.2945 27.1459
lfingers 7.12502
lthumb 1.22712 57.1221
rfemur -26.4437 -8.58867 16.6057
rtibia 41.8557
rfoot -24.0819 -18.7414
rtoes -15.0786
lfemur -23.0371 5.24215 -21.8643
ltibia 63.0663
lfoot 0.309052 -3.28346
ltoes -16.2506
388
root 3.76363 20.1595 -0.334902 -7.09818 -55.1992 13.1668
lowerback 24.6771 -1.88395 0.450903
upperback 7.47875 -2.60672 0.714365
thorax -5.43748 -1.40972 1.27484
lowerneck -15.5407 5.71167 9.30423
upperneck 25.1518 7.29498 -7.41101
head 11.3777 3.22735 -3.23718
rclavicle 1.27222e-013 -5.64548e-014
rhumerus 13.2928 22.8243 -63.3267
rradius 103.733
rwrist 7.22119
rhand -6.25248 -3.87234
rfingers 7.12502
rthumb 19.5896 -32.9054
lclavicle 1.27222e-013 -5.64548e-014
lhumerus 32.87 11.602 55.7561
lradius 93.9609
lwrist 42.4991
lhand -25.2697 27.6525
lfingers 7.12502
lthumb 1.25105 57.6285
rfemur -28.1043 -8.96406 17.0995
rtibia 44.3106
rfoot -24.056 -17.0705
rtoes -16.5878
lfemur -19.7886 3.60844 -21.6551
ltibia 57.226
lfoot 0.481975 -1.09915
ltoes -15.8084
389
root 3.82788 20.0413 -0.294163 -6.93635 -56.87 12.6149
lowerback 24.7807 -1.64873 0.447114
upperback 7.51043 -2.30064 0.973349
thorax -5.44697 -1.26981 1.47467
lowerneck -15.3238 6.04276 9.85069
upperneck 24.7444 7.81744 -8.1331
head 11.2921 3.43785 -3.51252
rclavicle 1.50281e-013 -5.88403e-014
rhumerus 15.4065 23.0743 -62.899
rradius 102.861
rwrist 7.22317
rhand -5.02913 -3.80104
rfingers 7.12502
rthumb 20.7654 -32.7099
lclavicle 1.50281e-013 -5.88403e-014
lhumerus 32.7222 12.7627 55.5126
lradius 93.7262
lwrist 42.8754
lhand -25.285 28.1195
lfingers 7.12502
lthumb 1.23628 58.0957
rfemur -29.7341 -9.2888 17.6318
rtibia 46.7827
rfoot -24.0121 -15.3484
rtoes -18.0388
lfemur -16.6927 1.82794 -21.4515
ltibia 51.5519
lfoot 1.07796 1.20065
ltoes -14.8555
